<svg xmlns:xlink="http://www.w3.org/1999/xlink" xmlns="http://www.w3.org/2000/svg" width="698.56"
  height="425.28" viewBox="0 0 523.92 318.96">
  <defs>
    <path d="M1.188 0v-10.75h7.765v1.266H2.61v3.296h5.954v1.266H2.609v3.656h6.594V0Zm0 0" id="b" />
    <path
      d="M.984 0v-7.781h1.188v1.11c.57-.864 1.398-1.298 2.484-1.298.469 0 .899.09 1.297.266.395.168.688.387.875.656.195.274.336.594.422.969.04.25.063.683.063 1.297V0H6v-4.734c0-.54-.055-.942-.156-1.204a1.284 1.284 0 0 0-.547-.64 1.768 1.768 0 0 0-.922-.234 2.15 2.15 0 0 0-1.453.53c-.406.356-.61 1.032-.61 2.032V0Zm0 0"
      id="c" />
    <path
      d="m3.875-1.188.188 1.172c-.375.082-.711.125-1 .125-.481 0-.856-.078-1.126-.234-.261-.156-.445-.352-.546-.594-.106-.25-.157-.77-.157-1.562v-4.485H.266V-7.78h.968V-9.72l1.313-.781v2.719h1.328v1.015H2.547v4.563c0 .375.02.621.062.734.051.106.13.188.235.25.101.063.254.094.453.094.144 0 .336-.02.578-.063Zm0 0"
      id="d" />
    <path d="M1-9.234v-1.516h1.313v1.516ZM1 0v-7.781h1.313V0Zm0 0" id="e" />
    <path
      d="m6.313-2.5 1.375.156c-.22.805-.622 1.422-1.204 1.86-.586.437-1.324.656-2.218.656-1.149 0-2.055-.348-2.72-1.047-.667-.695-1-1.68-1-2.953 0-1.313.337-2.328 1.016-3.047.676-.727 1.551-1.094 2.625-1.094 1.04 0 1.891.356 2.547 1.063.664.71 1 1.71 1 3 0 .074-.007.187-.015.344H1.906c.051.867.297 1.527.735 1.984.437.45.976.672 1.625.672.488 0 .898-.125 1.234-.375.344-.258.613-.664.813-1.219ZM1.984-4.64h4.344c-.055-.657-.215-1.145-.484-1.47a2.058 2.058 0 0 0-1.64-.765c-.606 0-1.118.203-1.532.61-.418.406-.649.949-.688 1.624Zm0 0"
      id="f" />
    <path
      d="m.469-2.328 1.297-.203c.07.523.273.922.609 1.203.332.281.8.422 1.406.422.602 0 1.051-.125 1.344-.375.3-.25.453-.535.453-.86 0-.3-.133-.539-.39-.718-.188-.114-.641-.258-1.36-.438-.96-.25-1.625-.46-2-.64a1.97 1.97 0 0 1-.86-.735 1.992 1.992 0 0 1-.28-1.047c0-.343.078-.66.234-.953.156-.3.367-.55.64-.75.208-.144.489-.27.844-.375a3.711 3.711 0 0 1 1.14-.172c.614 0 1.15.09 1.61.266.457.18.797.418 1.016.719.226.304.383.703.469 1.203l-1.297.187C5.28-6 5.109-6.312 4.828-6.53c-.281-.227-.68-.344-1.187-.344-.606 0-1.04.102-1.297.297-.262.2-.39.433-.39.703 0 .18.054.336.171.469.102.136.27.25.5.343.133.055.523.168 1.172.344.926.25 1.57.453 1.937.61.375.156.664.386.875.687.207.305.313.684.313 1.14 0 .438-.133.852-.39 1.235-.25.387-.622.688-1.11.906a4.073 4.073 0 0 1-1.625.313C2.773.172 2-.035 1.469-.453c-.524-.414-.856-1.04-1-1.875Zm0 0"
      id="g" />
    <path
      d="M8.219-10.75H9.64v6.219c0 1.074-.125 1.93-.375 2.562-.243.637-.684 1.157-1.329 1.563-.636.398-1.468.594-2.5.594-1.011 0-1.84-.172-2.484-.516a2.987 2.987 0 0 1-1.36-1.516c-.273-.656-.405-1.55-.405-2.687v-6.219h1.421v6.203c0 .938.082 1.633.25 2.078a2 2 0 0 0 .891 1.016c.426.242.945.36 1.563.36 1.039 0 1.785-.235 2.234-.704.445-.476.672-1.394.672-2.75Zm0 0"
      id="h" />
    <path
      d="m6.078-2.86 1.297.172c-.148.899-.512 1.602-1.094 2.11-.586.5-1.304.75-2.156.75-1.063 0-1.918-.344-2.563-1.031-.648-.696-.968-1.696-.968-3 0-.844.133-1.579.406-2.204.281-.632.703-1.109 1.266-1.421A3.767 3.767 0 0 1 4.14-7.97c.843 0 1.53.219 2.062.657.54.43.89 1.03 1.047 1.812l-1.297.203c-.117-.52-.328-.91-.64-1.172a1.666 1.666 0 0 0-1.125-.406c-.668 0-1.211.242-1.625.719-.418.468-.626 1.218-.626 2.25 0 1.054.196 1.82.594 2.297.406.468.93.703 1.578.703.52 0 .954-.156 1.297-.469.352-.32.578-.816.672-1.484Zm0 0"
      id="j" />
    <path
      d="M6.078-.953c-.492.406-.965.7-1.422.875-.449.164-.933.25-1.453.25-.855 0-1.512-.207-1.969-.625-.46-.414-.687-.945-.687-1.594 0-.383.082-.734.25-1.047.176-.32.406-.578.687-.765.282-.188.598-.332.954-.438.257-.062.648-.125 1.171-.187 1.063-.125 1.844-.274 2.344-.454.008-.187.016-.3.016-.343 0-.54-.125-.922-.375-1.14-.336-.302-.836-.454-1.5-.454-.625 0-1.09.11-1.39.328-.294.219-.509.606-.642 1.156L.766-5.562c.125-.551.316-.993.578-1.329.27-.343.66-.609 1.172-.796.507-.188 1.097-.282 1.765-.282.664 0 1.207.078 1.625.235.414.156.719.355.907.593.195.243.335.543.421.907.04.218.063.625.063 1.218v1.75c0 1.23.023 2.008.078 2.329.063.324.176.636.344.937h-1.39a2.57 2.57 0 0 1-.25-.953Zm-.125-2.953c-.469.199-1.183.367-2.14.5-.555.074-.946.164-1.172.265-.22.094-.391.235-.516.422a1.158 1.158 0 0 0-.172.625c0 .356.129.653.39.89.27.231.66.345 1.173.345.507 0 .96-.11 1.359-.329.395-.226.688-.535.875-.921.133-.29.203-.727.203-1.313Zm0 0"
      id="k" />
    <path
      d="m8.828-3.766 1.422.36c-.305 1.168-.84 2.058-1.61 2.672-.773.617-1.718.921-2.843.921-1.156 0-2.102-.234-2.828-.703C2.25-.992 1.695-1.68 1.313-2.578A7.356 7.356 0 0 1 .75-5.453c0-1.125.21-2.102.64-2.938a4.342 4.342 0 0 1 1.829-1.89 5.294 5.294 0 0 1 2.61-.656c1.07 0 1.972.277 2.702.828.739.543 1.25 1.312 1.531 2.312l-1.39.328c-.25-.781-.617-1.347-1.094-1.703-.469-.363-1.062-.547-1.781-.547-.836 0-1.527.2-2.078.594-.555.398-.946.93-1.172 1.594a6.586 6.586 0 0 0-.328 2.062c0 .918.129 1.719.39 2.407.27.68.688 1.187 1.25 1.53.563.337 1.172.5 1.829.5.789 0 1.46-.226 2.015-.687.55-.457.926-1.14 1.125-2.047Zm0 0"
      id="l" />
    <path
      d="M.5-3.89c0-1.446.398-2.516 1.203-3.204.664-.582 1.484-.875 2.453-.875 1.063 0 1.93.356 2.61 1.063.687.699 1.03 1.668 1.03 2.906 0 1-.151 1.79-.452 2.36A3.27 3.27 0 0 1 6.03-.298a3.86 3.86 0 0 1-1.875.469C3.063.172 2.176-.176 1.5-.875.832-1.57.5-2.578.5-3.891Zm1.36 0c0 1 .21 1.75.64 2.25.438.492.988.734 1.656.734.645 0 1.188-.25 1.625-.75.438-.5.657-1.258.657-2.282 0-.957-.22-1.687-.657-2.187-.437-.5-.98-.75-1.625-.75-.668 0-1.218.25-1.656.75-.43.492-.64 1.234-.64 2.234Zm0 0"
      id="m" />
    <path
      d="M.969 0v-7.781h1.187v1.172c.313-.551.594-.914.844-1.094a1.47 1.47 0 0 1 .844-.266c.445 0 .898.149 1.36.438L4.75-6.313a1.926 1.926 0 0 0-.969-.28c-.293 0-.554.09-.781.265-.23.168-.39.406-.484.719-.149.468-.22.98-.22 1.53V0Zm0 0"
      id="n" />
    <path d="M.953 0v-10.75h1.328V0Zm0 0" id="o" />
    <path
      d="M1.156 0v-10.75H4.86c.832 0 1.473.055 1.922.156.614.149 1.133.403 1.563.766.57.48 1 1.094 1.281 1.844.281.742.422 1.59.422 2.546 0 .825-.102 1.555-.297 2.188-.188.625-.434 1.148-.734 1.563-.293.406-.618.73-.97.968-.355.242-.78.422-1.28.547C6.266-.055 5.687 0 5.03 0Zm1.422-1.266h2.297c.707 0 1.266-.066 1.672-.203.406-.133.726-.32.969-.562.332-.332.593-.781.78-1.344.188-.57.282-1.266.282-2.078 0-1.125-.187-1.988-.562-2.594-.368-.601-.813-1.008-1.344-1.219-.375-.144-.984-.218-1.828-.218H2.578Zm0 0"
      id="p" />
    <path
      d="M3.156 0 .187-7.781h1.391L3.25-3.125c.188.5.352 1.027.5 1.578.125-.414.29-.91.5-1.484l1.719-4.75h1.36L4.39 0Zm0 0"
      id="q" />
    <path
      d="M1.094 0v-10.75h4.031c.82 0 1.484.11 1.984.328.5.219.891.559 1.172 1.016.281.449.422.918.422 1.406 0 .46-.125.89-.375 1.297-.25.406-.633.734-1.14.984.656.188 1.156.516 1.5.985.351.46.53 1 .53 1.625 0 .5-.109.968-.327 1.406-.211.43-.47.762-.782 1-.312.23-.71.406-1.187.531C6.453-.055 5.879 0 5.203 0Zm1.422-6.234h2.328c.633 0 1.086-.04 1.36-.125.362-.102.632-.282.812-.532.187-.25.28-.562.28-.937 0-.352-.089-.664-.265-.938a1.321 1.321 0 0 0-.734-.562c-.313-.102-.856-.156-1.625-.156H2.516Zm0 4.968h2.687c.457 0 .781-.015.969-.046.32-.063.594-.16.812-.297.22-.133.399-.332.547-.594.145-.27.219-.57.219-.906 0-.407-.105-.754-.313-1.047-.21-.301-.496-.508-.859-.625-.367-.125-.89-.188-1.578-.188H2.516Zm0 0"
      id="y" />
    <path d="M1.406 0v-10.75h1.422V0Zm0 0" id="z" />
    <path
      d="m.11 0 2.843-4.047L.328-7.78h1.64l1.204 1.828c.219.344.394.633.531.86.219-.321.414-.61.594-.86l1.312-1.828h1.579L4.5-4.125 7.39 0H5.782l-1.61-2.422-.421-.656L1.703 0Zm0 0"
      id="T" />
    <path
      d="M1.313 0v-6.766H.14V-7.78h1.171v-.828c0-.532.04-.922.125-1.172a1.74 1.74 0 0 1 .672-.828c.32-.22.77-.329 1.344-.329.375 0 .785.047 1.235.141L4.5-9.657a5.761 5.761 0 0 0-.781-.062c-.406 0-.696.09-.86.266-.156.168-.234.484-.234.953v.719h1.516v1.015H2.625V0Zm0 0"
      id="U" />
    <path
      d="M.813 0v-7.531h2.593c.582 0 1.031.039 1.344.11.426.105.79.288 1.094.546.394.336.691.762.89 1.281.196.524.297 1.117.297 1.782 0 .574-.07 1.085-.203 1.53-.125.438-.297.805-.516 1.095-.21.292-.437.523-.687.687-.242.168-.54.293-.89.375A5.152 5.152 0 0 1 3.53 0Zm1-.89h1.609c.488 0 .875-.047 1.156-.141.281-.094.508-.223.688-.39.226-.227.406-.54.53-.938C5.93-2.766 6-3.25 6-3.813c0-.789-.133-1.394-.39-1.812-.25-.426-.563-.71-.938-.86-.262-.1-.688-.156-1.281-.156H1.812Zm0 0"
      id="r" />
    <path
      d="m4.422-1.75.953.11c-.148.562-.422 1-.828 1.312-.406.305-.93.453-1.563.453-.804 0-1.437-.242-1.906-.734-.46-.489-.687-1.18-.687-2.079 0-.914.234-1.624.703-2.124.468-.508 1.082-.766 1.843-.766.727 0 1.32.25 1.782.75.457.492.687 1.187.687 2.094v.25H1.344c.031.593.195 1.054.5 1.375a1.55 1.55 0 0 0 1.14.468c.344 0 .633-.086.875-.265.239-.176.426-.457.563-.844ZM1.39-3.25h3.046c-.042-.457-.156-.8-.343-1.031a1.464 1.464 0 0 0-1.157-.532c-.417 0-.773.141-1.062.422-.293.282-.453.664-.484 1.141Zm0 0"
      id="s" />
    <path
      d="M.688 2.094v-7.547h.843v.703c.196-.27.422-.473.672-.61.25-.144.55-.218.906-.218.47 0 .88.121 1.235.36.363.241.633.577.812 1.015.176.437.266.918.266 1.437 0 .555-.102 1.055-.297 1.5-.2.45-.492.793-.875 1.032a2.21 2.21 0 0 1-1.203.359c-.305 0-.578-.063-.828-.188a1.911 1.911 0 0 1-.594-.5v2.657Zm.843-4.797c0 .71.14 1.23.422 1.562.281.336.625.5 1.031.5.414 0 .77-.171 1.063-.515.289-.344.437-.88.437-1.61 0-.695-.148-1.218-.437-1.562-.281-.352-.621-.531-1.016-.531-.398 0-.746.187-1.047.562-.304.367-.453.899-.453 1.594Zm0 0"
      id="t" />
    <path
      d="M.688 0v-5.453h.843v.781c.395-.601.973-.906 1.735-.906.32 0 .617.062.89.187.282.118.489.274.625.47.133.187.235.413.297.671.031.168.047.465.047.89V0h-.922v-3.313c0-.374-.039-.656-.11-.843a.93.93 0 0 0-.39-.453 1.17 1.17 0 0 0-.64-.172c-.399 0-.735.125-1.016.375s-.422.726-.422 1.422V0Zm0 0"
      id="u" />
    <path
      d="M4.234 0v-.688c-.343.543-.855.813-1.53.813-.438 0-.84-.121-1.204-.36a2.286 2.286 0 0 1-.844-1C.457-1.671.36-2.164.36-2.718c0-.539.086-1.035.266-1.484.188-.445.46-.785.828-1.016.363-.238.77-.36 1.219-.36.32 0 .61.075.86.22.257.136.472.312.64.53V-7.53h.922V0ZM1.313-2.719c0 .7.144 1.219.437 1.563.29.343.64.515 1.047.515.406 0 .75-.16 1.031-.484.281-.332.422-.836.422-1.516 0-.75-.148-1.296-.438-1.64-.28-.352-.636-.532-1.062-.532-.406 0-.75.168-1.031.5-.274.336-.407.868-.407 1.594Zm0 0"
      id="v" />
    <path
      d="m4.25-2 .906.125c-.093.625-.351 1.117-.765 1.469-.407.355-.907.531-1.5.531-.75 0-1.356-.242-1.813-.734-.45-.489-.672-1.188-.672-2.094 0-.594.098-1.11.297-1.547a2.03 2.03 0 0 1 .89-.984 2.565 2.565 0 0 1 1.298-.344c.593 0 1.078.152 1.453.453.375.305.617.73.734 1.281l-.906.125c-.086-.363-.234-.633-.453-.812a1.164 1.164 0 0 0-.781-.282c-.47 0-.852.168-1.141.5-.293.336-.438.86-.438 1.579 0 .742.141 1.277.422 1.609.282.324.645.484 1.094.484.363 0 .664-.109.906-.328.25-.219.406-.562.469-1.031Zm0 0"
      id="w" />
    <path
      d="m.656 2.094-.11-.86c.208.051.384.079.532.079.207 0 .367-.04.484-.11a.825.825 0 0 0 .313-.281c.063-.094.156-.324.281-.688.02-.054.047-.125.078-.218L.172-5.454h1l1.125 3.157c.144.406.281.828.406 1.266.102-.426.227-.844.375-1.25l1.156-3.172h.938L3.094.094a17.86 17.86 0 0 1-.516 1.234c-.168.3-.36.524-.578.672-.21.145-.46.219-.75.219-.18 0-.375-.043-.594-.125Zm0 0"
      id="x" />
    <path d="M.828 0v-7.531h5.453v.89H1.828v2.313h4.156v.875H1.828v2.562h4.625V0Zm0 0" id="A" />
    <path
      d="m2.719-.828.125.812a3.062 3.062 0 0 1-.703.094c-.336 0-.594-.055-.782-.156A1.032 1.032 0 0 1 .97-.5c-.074-.176-.11-.54-.11-1.094v-3.14H.188v-.72h.671v-1.343l.922-.562v1.906h.938v.719H1.78v3.187c0 .262.016.434.047.516a.335.335 0 0 0 .156.172c.07.043.18.062.329.062.093 0 .226-.008.406-.031Zm0 0"
      id="B" />
    <path
      d="M.688 0v-5.453h.828v.828c.207-.383.398-.64.578-.766.187-.125.39-.187.61-.187.3 0 .612.101.937.297l-.313.86a1.347 1.347 0 0 0-.672-.204.903.903 0 0 0-.562.188.989.989 0 0 0-.328.5 3.58 3.58 0 0 0-.157 1.078V0Zm0 0"
      id="C" />
    <path d="M.703-6.469V-7.53h.922v1.062ZM.703 0v-5.453h.922V0Zm0 0" id="D" />
    <path
      d="m.328-1.625.906-.14c.051.367.192.648.422.843.239.188.57.281 1 .281.414 0 .727-.082.938-.25.207-.175.312-.379.312-.609a.577.577 0 0 0-.281-.5c-.125-.082-.438-.188-.938-.313-.68-.164-1.148-.312-1.406-.437a1.355 1.355 0 0 1-.593-.516A1.398 1.398 0 0 1 .484-4c0-.25.051-.473.157-.672.113-.207.265-.383.453-.531.144-.102.343-.192.593-.266.25-.07.516-.11.797-.11.426 0 .801.063 1.125.188.32.125.563.293.72.5.155.211.257.493.312.844l-.891.125a.999.999 0 0 0-.36-.656c-.199-.156-.48-.234-.843-.234-.418 0-.719.074-.906.218-.18.137-.266.297-.266.485 0 .117.035.218.11.312.07.106.19.188.359.25.093.043.363.121.812.235.656.18 1.11.324 1.36.437.257.105.46.266.609.484.156.211.234.47.234.782 0 .312-.093.605-.28.875-.18.273-.438.484-.782.64a2.856 2.856 0 0 1-1.14.219c-.712 0-1.25-.145-1.626-.438C.664-.613.43-1.05.328-1.625Zm0 0"
      id="E" />
    <path
      d="M1.547 0h-.86v-7.531h.922v2.687c.395-.488.895-.734 1.5-.734.332 0 .649.07.954.203.3.137.546.328.734.578.195.242.348.531.453.875.113.344.172.715.172 1.11 0 .937-.234 1.664-.703 2.171-.461.512-1.012.766-1.657.766-.648 0-1.152-.27-1.515-.813ZM1.53-2.766c0 .657.086 1.133.266 1.422.289.469.687.703 1.187.703.407 0 .754-.171 1.047-.515.29-.352.438-.88.438-1.578 0-.707-.14-1.227-.422-1.563-.281-.344-.621-.516-1.016-.516-.406 0-.761.18-1.062.532-.293.343-.438.851-.438 1.515Zm0 0"
      id="G" />
    <path
      d="M4.266 0v-.797c-.43.617-1.008.922-1.735.922-.324 0-.625-.063-.906-.188-.273-.124-.477-.28-.61-.468a1.658 1.658 0 0 1-.28-.688c-.044-.176-.063-.46-.063-.86v-3.374h.922v3.031c0 .48.02.805.062.969.051.242.172.433.36.578.195.137.43.203.703.203.281 0 .539-.066.781-.203a1.25 1.25 0 0 0 .516-.578c.101-.25.156-.61.156-1.078v-2.922h.922V0Zm0 0"
      id="H" />
    <path d="M.672 0v-7.531h.922V0Zm0 0" id="I" />
    <path
      d="m-.016 0 2.891-7.531h1.078L7.031 0h-1.14l-.875-2.281H1.875L1.047 0Zm2.172-3.094h2.547l-.781-2.078a18.245 18.245 0 0 1-.531-1.562c-.094.48-.23.96-.407 1.437Zm0 0"
      id="J" />
    <path
      d="M4.25-.672c-.344.293-.68.5-1 .625a2.923 2.923 0 0 1-1 .172C1.645.125 1.18-.02.86-.313.534-.601.374-.977.374-1.438c0-.269.063-.515.188-.734.125-.219.28-.394.468-.531.196-.133.422-.235.672-.297.188-.05.461-.098.828-.14.739-.094 1.285-.196 1.64-.313v-.25c0-.375-.085-.64-.25-.797-.241-.207-.593-.313-1.062-.313-.43 0-.746.079-.953.235-.21.148-.367.414-.468.797l-.891-.11c.07-.394.203-.707.39-.937.196-.238.473-.422.829-.547A3.493 3.493 0 0 1 3-5.578c.469 0 .844.058 1.125.172.29.105.504.242.64.406.145.168.243.375.298.625.03.156.046.445.046.86v1.234c0 .855.02 1.398.063 1.625.039.23.117.449.234.656h-.968a2.032 2.032 0 0 1-.188-.672Zm-.078-2.062c-.336.136-.836.25-1.5.343-.387.055-.656.118-.813.188a.95.95 0 0 0-.375.312.724.724 0 0 0-.125.422c0 .25.094.461.282.625.187.168.46.25.828.25.351 0 .664-.078.937-.234.281-.156.489-.367.625-.64.094-.208.14-.516.14-.923Zm0 0"
      id="K" />
    <path
      d="M.344-2.719c0-1.008.281-1.758.844-2.25.468-.406 1.039-.61 1.718-.61.75 0 1.36.247 1.828.735.477.492.72 1.172.72 2.047 0 .7-.106 1.25-.313 1.656-.211.399-.516.711-.922.938a2.682 2.682 0 0 1-1.313.328c-.761 0-1.383-.242-1.86-.734C.579-1.098.345-1.801.345-2.72Zm.953 0c0 .7.148 1.219.453 1.563.313.343.695.515 1.156.515a1.46 1.46 0 0 0 1.14-.515c.313-.352.47-.883.47-1.594 0-.676-.157-1.188-.47-1.531a1.45 1.45 0 0 0-1.14-.532c-.46 0-.844.172-1.156.516-.305.344-.453.871-.453 1.578Zm0 0"
      id="L" />
    <path d="M.984 0v-7.531h1V0Zm0 0" id="M" />
    <path
      d="M.906 0v-4.734H.094v-.72h.812v-.577c0-.364.035-.633.11-.813.082-.238.234-.43.453-.578.226-.156.547-.234.953-.234.258 0 .547.031.86.093l-.141.813a2.648 2.648 0 0 0-.532-.063c-.28 0-.484.063-.609.188-.117.117-.172.34-.172.672v.5h1.063v.719H1.828V0Zm0 0"
      id="N" />
    <path d="M.86 0v-7.531h5.077v.89H1.86v2.329h3.532v.89H1.859V0Zm0 0" id="O" />
    <path
      d="M.688 0v-5.453h.828v.766a1.93 1.93 0 0 1 .687-.641c.281-.164.602-.25.969-.25.406 0 .734.086.984.25.258.168.446.402.563.703.426-.633.984-.953 1.672-.953.539 0 .957.152 1.25.453.289.305.437.762.437 1.375V0h-.922v-3.438c0-.363-.031-.628-.093-.796a.7.7 0 0 0-.313-.391 1.011 1.011 0 0 0-.563-.156c-.375 0-.695.133-.953.39-.25.25-.375.657-.375 1.22V0h-.921v-3.547c0-.406-.079-.71-.235-.922-.148-.207-.39-.312-.734-.312-.262 0-.5.074-.719.218a1.2 1.2 0 0 0-.484.594c-.094.262-.141.64-.141 1.14V0Zm0 0"
      id="P" />
    <path
      d="M1.703 0 .031-5.453h.953l.875 3.14.313 1.172c.02-.05.113-.425.281-1.125l.875-3.187h.953l.813 3.156.265 1.047.313-1.047.937-3.156h.907L5.812 0h-.968l-.86-3.266-.218-.921L2.672 0Zm0 0"
      id="Q" />
    <path
      d="M.703 0v-7.531h.922v4.297l2.188-2.22H5L2.922-3.437 5.219 0h-1.14L2.28-2.781l-.656.625V0Zm0 0"
      id="R" />
    <path
      d="M2.203 0 .141-5.453h.968l1.172 3.266c.125.355.239.718.344 1.093.082-.281.195-.625.344-1.031l1.219-3.328h.953L3.078 0Zm0 0"
      id="S" />
    <clipPath id="a">
      <path d="M0 0h321v317.555H0Zm0 0" />
    </clipPath>
  </defs>
  <path fill="#96B7FF"
    d="M316.426 158.777c0 2.578-.063 5.157-.188 7.735a159.468 159.468 0 0 1-.57 7.718 159.072 159.072 0 0 1-2.27 15.301 160.83 160.83 0 0 1-1.695 7.551 158.323 158.323 0 0 1-2.066 7.457 152.437 152.437 0 0 1-2.426 7.348 153.708 153.708 0 0 1-2.785 7.218 158.75 158.75 0 0 1-6.613 13.988 158.43 158.43 0 0 1-3.817 6.731 153.515 153.515 0 0 1-4.137 6.54 158.672 158.672 0 0 1-9.218 12.425 153.477 153.477 0 0 1-5.055 5.86 156.921 156.921 0 0 1-5.332 5.605 156.921 156.921 0 0 1-5.606 5.332 156.547 156.547 0 0 1-5.859 5.055 158.672 158.672 0 0 1-12.426 9.219 153.515 153.515 0 0 1-6.539 4.136 158.43 158.43 0 0 1-6.73 3.817 158.75 158.75 0 0 1-21.207 9.398c-2.43.871-4.88 1.68-7.348 2.426-2.469.75-4.953 1.437-7.457 2.066a160.83 160.83 0 0 1-7.55 1.695c-2.528.504-5.071.946-7.622 1.32-2.555.38-5.113.696-7.68.95-2.57.254-5.14.441-7.718.57a159.686 159.686 0 0 1-15.473 0 159.307 159.307 0 0 1-7.715-.57c-2.566-.254-5.129-.57-7.68-.95-2.55-.374-5.093-.816-7.624-1.32a160.83 160.83 0 0 1-7.551-1.695 159.643 159.643 0 0 1-14.805-4.492 155.39 155.39 0 0 1-7.219-2.785 156.322 156.322 0 0 1-7.074-3.137 156.424 156.424 0 0 1-13.644-7.293 155.888 155.888 0 0 1-6.536-4.137 155.738 155.738 0 0 1-12.426-9.219 153.476 153.476 0 0 1-5.859-5.054 153.67 153.67 0 0 1-5.605-5.332 160.605 160.605 0 0 1-5.336-5.606 155.765 155.765 0 0 1-9.813-11.96 157.596 157.596 0 0 1-19.027-33.582 162.847 162.847 0 0 1-2.785-7.22 161.588 161.588 0 0 1-2.426-7.347 153.693 153.693 0 0 1-2.062-7.457 156.038 156.038 0 0 1-1.696-7.55 156.865 156.865 0 0 1-2.84-23.02 154.854 154.854 0 0 1-.191-7.735c0-2.582.063-5.16.191-7.738.125-2.574.317-5.148.57-7.715.25-2.566.567-5.129.946-7.68a157.85 157.85 0 0 1 3.02-15.175c.625-2.5 1.312-4.989 2.062-7.457.75-2.469 1.559-4.918 2.426-7.348.87-2.426 1.8-4.836 2.785-7.219a156.494 156.494 0 0 1 6.617-13.984 158.489 158.489 0 0 1 3.813-6.734 157.62 157.62 0 0 1 29.352-35.762 157.045 157.045 0 0 1 11.956-9.813 157.62 157.62 0 0 1 33.582-19.027 164.736 164.736 0 0 1 7.22-2.785c2.429-.867 4.878-1.676 7.347-2.426 2.468-.75 4.957-1.437 7.457-2.062a157.85 157.85 0 0 1 15.176-3.02c2.55-.379 5.113-.695 7.68-.945 2.566-.254 5.14-.446 7.714-.57 2.578-.13 5.156-.192 7.738-.192 2.578 0 5.157.063 7.735.191 2.578.125 5.148.317 7.718.57a156.865 156.865 0 0 1 15.3 2.27c2.532.504 5.048 1.067 7.552 1.696 2.504.625 4.988 1.312 7.457 2.062 2.469.75 4.918 1.559 7.348 2.426 2.43.87 4.836 1.8 7.218 2.785a158.792 158.792 0 0 1 13.989 6.617 158.35 158.35 0 0 1 13.27 7.953 154.743 154.743 0 0 1 6.323 4.457 155.765 155.765 0 0 1 11.961 9.813 160.605 160.605 0 0 1 5.606 5.336 153.67 153.67 0 0 1 5.332 5.605 153.476 153.476 0 0 1 5.055 5.86 155.738 155.738 0 0 1 9.218 12.425 158.568 158.568 0 0 1 7.953 13.27 156.424 156.424 0 0 1 3.477 6.91 156.322 156.322 0 0 1 3.137 7.074 155.39 155.39 0 0 1 2.785 7.22 159.643 159.643 0 0 1 4.492 14.805 160.83 160.83 0 0 1 1.695 7.55c.504 2.53.946 5.074 1.32 7.625.38 2.55.696 5.113.95 7.68.254 2.566.441 5.14.57 7.714.125 2.578.188 5.156.188 7.738Zm0 0" />
  <g clip-path="url(#a)">
    <path fill="none" stroke="#fff"
      d="M316.426 158.777c0 2.578-.063 5.157-.188 7.735a159.465 159.465 0 0 1-.57 7.718 159.07 159.07 0 0 1-2.27 15.301 160.824 160.824 0 0 1-1.695 7.551 158.316 158.316 0 0 1-2.066 7.457 152.424 152.424 0 0 1-2.426 7.348 153.707 153.707 0 0 1-2.785 7.218 158.737 158.737 0 0 1-6.613 13.988 158.422 158.422 0 0 1-3.817 6.731 153.511 153.511 0 0 1-4.137 6.54 158.66 158.66 0 0 1-14.273 18.284 156.925 156.925 0 0 1-5.332 5.606 156.925 156.925 0 0 1-5.606 5.332 156.549 156.549 0 0 1-5.859 5.055 158.66 158.66 0 0 1-12.426 9.219 153.511 153.511 0 0 1-6.539 4.136 158.422 158.422 0 0 1-6.73 3.816 158.737 158.737 0 0 1-21.207 9.399c-2.43.87-4.88 1.68-7.348 2.426-2.469.75-4.953 1.437-7.457 2.066-2.504.625-5.02 1.191-7.55 1.695-2.528.504-5.071.946-7.622 1.32a159.07 159.07 0 0 1-7.68.95c-2.57.254-5.14.441-7.718.57a159.683 159.683 0 0 1-15.473 0 159.305 159.305 0 0 1-7.715-.57c-2.566-.254-5.129-.57-7.68-.95-2.55-.374-5.093-.816-7.625-1.32a160.824 160.824 0 0 1-7.55-1.695 159.637 159.637 0 0 1-14.805-4.492 155.385 155.385 0 0 1-7.219-2.785 156.316 156.316 0 0 1-7.074-3.137 156.413 156.413 0 0 1-13.644-7.293 155.886 155.886 0 0 1-6.536-4.137 155.736 155.736 0 0 1-12.426-9.219 153.479 153.479 0 0 1-5.859-5.054 153.67 153.67 0 0 1-5.605-5.332 160.608 160.608 0 0 1-5.336-5.606 155.762 155.762 0 0 1-9.812-11.96c-1.54-2.07-3.024-4.18-4.458-6.325a157.597 157.597 0 0 1-14.57-27.258 162.85 162.85 0 0 1-2.785-7.218 161.586 161.586 0 0 1-2.426-7.348 153.692 153.692 0 0 1-2.062-7.457 156.04 156.04 0 0 1-1.696-7.55 156.864 156.864 0 0 1-2.84-23.02 154.854 154.854 0 0 1-.191-7.735c0-2.582.062-5.16.191-7.738.125-2.574.317-5.148.57-7.715.25-2.566.567-5.129.946-7.68a157.849 157.849 0 0 1 3.02-15.175c.625-2.5 1.312-4.989 2.062-7.457.75-2.47 1.559-4.918 2.426-7.348.87-2.426 1.8-4.836 2.785-7.219a156.494 156.494 0 0 1 6.617-13.984 158.492 158.492 0 0 1 3.813-6.734 157.621 157.621 0 0 1 29.352-35.762 157.046 157.046 0 0 1 11.956-9.813 157.621 157.621 0 0 1 33.582-19.027 164.736 164.736 0 0 1 7.219-2.785c2.43-.867 4.879-1.676 7.348-2.426 2.468-.75 4.957-1.437 7.457-2.062a157.849 157.849 0 0 1 15.176-3.02c2.55-.379 5.113-.695 7.68-.945 2.566-.254 5.14-.446 7.714-.57 2.578-.13 5.156-.192 7.738-.192 2.578 0 5.157.062 7.735.191 2.578.125 5.148.317 7.718.57a156.864 156.864 0 0 1 15.3 2.27 156.04 156.04 0 0 1 7.552 1.696c2.504.625 4.988 1.312 7.457 2.062 2.469.75 4.918 1.559 7.348 2.426 2.43.87 4.836 1.8 7.218 2.785a158.795 158.795 0 0 1 13.989 6.617 158.348 158.348 0 0 1 13.27 7.953 154.742 154.742 0 0 1 6.323 4.457 155.762 155.762 0 0 1 11.961 9.813 160.608 160.608 0 0 1 5.606 5.336 153.67 153.67 0 0 1 5.332 5.605 153.479 153.479 0 0 1 5.055 5.86 155.736 155.736 0 0 1 9.218 12.425 158.566 158.566 0 0 1 7.953 13.27 156.413 156.413 0 0 1 3.477 6.91 156.316 156.316 0 0 1 3.137 7.074 155.385 155.385 0 0 1 2.785 7.219 159.637 159.637 0 0 1 4.492 14.805c.625 2.504 1.191 5.02 1.695 7.55.504 2.532.946 5.075 1.32 7.625.38 2.551.696 5.114.95 7.68.254 2.567.441 5.14.57 7.715.125 2.578.188 5.156.188 7.738zm0 0"
      stroke-width=".75072" />
  </g>
  <path fill="#B9E0A5" stroke="#FFF"
    d="M271.383 158.777c0 1.844-.043 3.684-.133 5.524-.094 1.84-.227 3.68-.41 5.511a112.516 112.516 0 0 1-4.305 21.653 114.312 114.312 0 0 1-3.723 10.406c-.707 1.7-1.453 3.387-2.238 5.05a114.183 114.183 0 0 1-5.21 9.746 113.265 113.265 0 0 1-9.54 13.548 111.748 111.748 0 0 1-7.422 8.187 111.748 111.748 0 0 1-8.187 7.422 114.351 114.351 0 0 1-8.88 6.582 113.265 113.265 0 0 1-4.667 2.957 114.183 114.183 0 0 1-9.746 5.211 118.769 118.769 0 0 1-5.051 2.238 114.312 114.312 0 0 1-10.406 3.723c-1.766.535-3.54 1.027-5.328 1.473a112.492 112.492 0 0 1-16.324 2.832c-1.833.183-3.672.316-5.512.41-1.84.09-3.68.133-5.524.133-1.843 0-3.687-.043-5.527-.133-1.84-.094-3.676-.227-5.512-.41a112.953 112.953 0 0 1-10.93-1.621 110.84 110.84 0 0 1-5.394-1.211 111.504 111.504 0 0 1-10.574-3.207 115.988 115.988 0 0 1-5.156-1.989 118.922 118.922 0 0 1-5.055-2.238 112.06 112.06 0 0 1-4.934-2.488 114.323 114.323 0 0 1-4.812-2.723 113.308 113.308 0 0 1-13.543-9.54 119.035 119.035 0 0 1-4.188-3.608 111.634 111.634 0 0 1-4-3.813 111.748 111.748 0 0 1-7.422-8.187 110.455 110.455 0 0 1-6.582-8.879 105.52 105.52 0 0 1-2.957-4.668 114.263 114.263 0 0 1-2.726-4.809 114.309 114.309 0 0 1-2.485-4.937 109.63 109.63 0 0 1-2.238-5.051 109.879 109.879 0 0 1-1.992-5.16 114.411 114.411 0 0 1-3.207-10.574 115.474 115.474 0 0 1-1.211-5.391 112.516 112.516 0 0 1-2.027-16.445c-.09-1.84-.137-3.68-.137-5.524a113.35 113.35 0 0 1 1.219-16.523c.273-1.824.586-3.637.945-5.445.36-1.809.766-3.606 1.211-5.395.45-1.785.941-3.562 1.477-5.324.535-1.766 1.109-3.516 1.73-5.25a111.423 111.423 0 0 1 1.992-5.156 109.77 109.77 0 0 1 2.238-5.055c.79-1.664 1.618-3.309 2.485-4.934.87-1.625 1.777-3.23 2.726-4.812a113.214 113.214 0 0 1 6.137-9.187 111.32 111.32 0 0 1 3.402-4.356 111.34 111.34 0 0 1 7.422-8.188 111.34 111.34 0 0 1 8.187-7.422 111.32 111.32 0 0 1 13.544-9.539c1.582-.949 3.187-1.855 4.812-2.726 1.625-.867 3.27-1.695 4.934-2.485a109.77 109.77 0 0 1 5.055-2.238 111.423 111.423 0 0 1 5.156-1.992 111.457 111.457 0 0 1 5.25-1.73c1.762-.536 3.539-1.028 5.324-1.477 1.79-.445 3.586-.852 5.395-1.211a112.953 112.953 0 0 1 21.969-2.164 113.19 113.19 0 0 1 16.523 1.219c1.82.273 3.636.586 5.445.945 1.805.36 3.606.766 5.39 1.211a114.411 114.411 0 0 1 10.575 3.207c1.738.621 3.457 1.285 5.16 1.992 1.7.703 3.387 1.45 5.05 2.238 1.669.79 3.313 1.618 4.938 2.485 1.625.87 3.227 1.777 4.809 2.726a105.52 105.52 0 0 1 4.668 2.957 110.455 110.455 0 0 1 8.879 6.582 111.748 111.748 0 0 1 8.187 7.422c1.305 1.301 2.574 2.637 3.813 4a119.035 119.035 0 0 1 3.61 4.188 113.308 113.308 0 0 1 9.54 13.543 114.323 114.323 0 0 1 2.72 4.812c.872 1.625 1.7 3.27 2.49 4.934a118.922 118.922 0 0 1 2.237 5.055 115.988 115.988 0 0 1 1.989 5.156 111.504 111.504 0 0 1 3.207 10.574c.449 1.79.851 3.586 1.21 5.395a111.668 111.668 0 0 1 1.622 10.93c.183 1.835.316 3.671.41 5.51.09 1.84.133 3.685.133 5.528Zm0 0"
    stroke-width=".75072" />
  <path fill="#FFCE9F" stroke="#FFF"
    d="M233.848 158.777c0 1.227-.032 2.457-.09 3.684a77.496 77.496 0 0 1-.27 3.676 76.555 76.555 0 0 1-1.082 7.285 74.654 74.654 0 0 1-.808 3.594 73.496 73.496 0 0 1-3.465 10.488 76.158 76.158 0 0 1-1.492 3.37 78.416 78.416 0 0 1-1.657 3.29 71.902 71.902 0 0 1-1.816 3.207 75.956 75.956 0 0 1-6.36 9.031 74.551 74.551 0 0 1-4.95 5.457 74.551 74.551 0 0 1-11.374 9.336 75.956 75.956 0 0 1-3.113 1.973 71.902 71.902 0 0 1-3.207 1.816 78.416 78.416 0 0 1-3.29 1.657 76.158 76.158 0 0 1-10.304 3.976c-1.176.356-2.36.684-3.554.98a74.654 74.654 0 0 1-14.555 2.16c-1.227.06-2.457.09-3.684.09-1.23 0-2.457-.03-3.683-.09a77.119 77.119 0 0 1-3.676-.269 76.554 76.554 0 0 1-7.29-1.082 75.725 75.725 0 0 1-10.644-2.945 76.01 76.01 0 0 1-10.098-4.477 71.77 71.77 0 0 1-3.202-1.816 73.384 73.384 0 0 1-3.114-1.973 73.374 73.374 0 0 1-5.918-4.386 74.667 74.667 0 0 1-10.406-10.406 74.328 74.328 0 0 1-6.36-9.032 71.902 71.902 0 0 1-1.816-3.207 76.225 76.225 0 0 1-3.152-6.66 76.088 76.088 0 0 1-3.465-10.488 74.624 74.624 0 0 1-.805-3.594 75.73 75.73 0 0 1-.632-3.63 76.537 76.537 0 0 1-.45-3.655 72.655 72.655 0 0 1-.27-3.676 72.45 72.45 0 0 1 0-7.367c.06-1.227.15-2.453.27-3.676.121-1.223.27-2.441.45-3.656a76.75 76.75 0 0 1 1.437-7.227c.3-1.191.629-2.375.984-3.55a73.34 73.34 0 0 1 1.157-3.5c.414-1.157.855-2.301 1.324-3.438a76.077 76.077 0 0 1 1.496-3.367 72.04 72.04 0 0 1 1.656-3.293 71.77 71.77 0 0 1 1.817-3.203 73.304 73.304 0 0 1 1.968-3.114 77.377 77.377 0 0 1 2.122-3.015 77.25 77.25 0 0 1 4.675-5.692c.825-.914 1.672-1.8 2.54-2.672a74.559 74.559 0 0 1 2.671-2.539 77.25 77.25 0 0 1 5.691-4.676 77.377 77.377 0 0 1 3.016-2.12c1.02-.68 2.059-1.34 3.114-1.97a71.77 71.77 0 0 1 3.203-1.816 72.04 72.04 0 0 1 3.293-1.656 76.077 76.077 0 0 1 3.367-1.496 77.928 77.928 0 0 1 3.437-1.324 73.34 73.34 0 0 1 3.5-1.157 79.585 79.585 0 0 1 3.551-.984 76.75 76.75 0 0 1 7.227-1.437 76.537 76.537 0 0 1 3.656-.45c1.223-.12 2.45-.21 3.676-.27a72.334 72.334 0 0 1 7.367 0c1.226.06 2.45.15 3.676.27 1.222.121 2.441.27 3.656.45a75.73 75.73 0 0 1 3.629.632 74.624 74.624 0 0 1 7.148 1.79 76.088 76.088 0 0 1 6.934 2.48 76.225 76.225 0 0 1 6.66 3.152 75.87 75.87 0 0 1 6.32 3.785 74.328 74.328 0 0 1 5.918 4.39c.95.778 1.88 1.583 2.79 2.407a74.443 74.443 0 0 1 5.21 5.211c.824.91 1.625 1.84 2.407 2.79a73.374 73.374 0 0 1 4.387 5.918 73.384 73.384 0 0 1 1.972 3.113 71.77 71.77 0 0 1 1.816 3.203 76.01 76.01 0 0 1 4.477 10.098 74.602 74.602 0 0 1 2.137 7.05c.3 1.192.566 2.39.808 3.594a76.72 76.72 0 0 1 1.082 7.289c.117 1.223.211 2.45.27 3.676.058 1.226.09 2.453.09 3.683Zm0 0"
    stroke-width=".75072" />
  <path fill="#F19C99" stroke="#FFF"
    d="M196.312 158.777c0 1.227-.058 2.453-.18 3.68a36.846 36.846 0 0 1-.542 3.64 36.207 36.207 0 0 1-.895 3.575 36.665 36.665 0 0 1-1.242 3.469 36.495 36.495 0 0 1-1.574 3.332 37.861 37.861 0 0 1-1.89 3.156 37.197 37.197 0 0 1-4.672 5.687 37.197 37.197 0 0 1-8.844 6.563 36.495 36.495 0 0 1-3.332 1.574 36.665 36.665 0 0 1-3.47 1.242c-1.175.36-2.366.656-3.573.895a36.846 36.846 0 0 1-3.641.543c-1.227.12-2.453.18-3.68.18a37.31 37.31 0 0 1-7.324-.723 36.484 36.484 0 0 1-3.574-.895 36.206 36.206 0 0 1-3.465-1.242 37.93 37.93 0 0 1-6.492-3.465 38.603 38.603 0 0 1-2.957-2.195 38.075 38.075 0 0 1-2.73-2.477 37.143 37.143 0 0 1-4.669-5.687 37.903 37.903 0 0 1-1.894-3.156 37.563 37.563 0 0 1-2.817-6.801 38.54 38.54 0 0 1-.894-3.574 37.428 37.428 0 0 1-.719-7.32c0-1.231.059-2.458.18-3.68.12-1.223.3-2.438.539-3.645.242-1.207.539-2.394.894-3.574a38.47 38.47 0 0 1 1.243-3.465 37.563 37.563 0 0 1 3.468-6.492 38.02 38.02 0 0 1 4.668-5.687 38.02 38.02 0 0 1 5.688-4.669 37.563 37.563 0 0 1 6.492-3.469 38.47 38.47 0 0 1 3.465-1.242 38.853 38.853 0 0 1 3.574-.894 38.296 38.296 0 0 1 3.645-.54 37.31 37.31 0 0 1 3.68-.179 37.428 37.428 0 0 1 10.894 1.613c1.176.36 2.332.774 3.469 1.243 1.136.468 2.246.996 3.332 1.574a37.903 37.903 0 0 1 6.117 4.09c.949.777 1.86 1.605 2.726 2.472a38.075 38.075 0 0 1 2.477 2.73c.777.95 1.512 1.938 2.195 2.958a37.93 37.93 0 0 1 3.465 6.492c.473 1.133.887 2.29 1.242 3.465.36 1.18.656 2.367.895 3.574a37.097 37.097 0 0 1 .722 7.324Zm0 0"
    stroke-width=".75072" />
  <g fill="currentColor">
    <use xlink:href="#b" x="133.78" y="164.407" />
    <use xlink:href="#c" x="143.794" y="164.407" />
    <use xlink:href="#d" x="152.145" y="164.407" />
    <use xlink:href="#e" x="156.316" y="164.407" />
    <use xlink:href="#d" x="159.652" y="164.407" />
    <use xlink:href="#e" x="163.823" y="164.407" />
    <use xlink:href="#f" x="167.159" y="164.407" />
    <use xlink:href="#g" x="175.509" y="164.407" />
  </g>
  <g fill="currentColor">
    <use xlink:href="#h" x="127.106" y="115.61" />
    <use xlink:href="#g" x="137.948" y="115.61" />
    <use xlink:href="#f" x="145.456" y="115.61" />
    <use xlink:href="#i" x="153.806" y="115.61" />
    <use xlink:href="#j" x="157.977" y="115.61" />
    <use xlink:href="#k" x="165.485" y="115.61" />
    <use xlink:href="#g" x="173.835" y="115.61" />
    <use xlink:href="#f" x="181.342" y="115.61" />
  </g>
  <g fill="currentColor">
    <use xlink:href="#l" x="122.109" y="78.074" />
    <use xlink:href="#m" x="132.952" y="78.074" />
    <use xlink:href="#c" x="141.302" y="78.074" />
    <use xlink:href="#d" x="149.652" y="78.074" />
    <use xlink:href="#n" x="153.824" y="78.074" />
    <use xlink:href="#m" x="158.823" y="78.074" />
    <use xlink:href="#o" x="167.174" y="78.074" />
    <use xlink:href="#o" x="170.509" y="78.074" />
    <use xlink:href="#f" x="173.845" y="78.074" />
    <use xlink:href="#n" x="182.195" y="78.074" />
    <use xlink:href="#g" x="187.195" y="78.074" />
  </g>
  <g fill="currentColor">
    <use xlink:href="#p" x="135.457" y="33.032" />
    <use xlink:href="#f" x="146.3" y="33.032" />
    <use xlink:href="#q" x="154.65" y="33.032" />
    <use xlink:href="#e" x="162.158" y="33.032" />
    <use xlink:href="#j" x="165.493" y="33.032" />
    <use xlink:href="#f" x="173" y="33.032" />
  </g>
  <path fill="none" stroke="currentColor" stroke-miterlimit="10" d="m63.434 254.867 22.191-22.844"
    stroke-width=".75072" />
  <path stroke="currentColor" stroke-miterlimit="10"
    d="m88.375 229.195-1.781 5.598-.969-2.77-2.797-.894Zm0 0" stroke-width=".75072" />
  <path fill="none" stroke="currentColor" stroke-miterlimit="10" d="m121.242 196.312 21.438-22.093"
    stroke-width=".75072" />
  <path stroke="currentColor" stroke-miterlimit="10"
    d="m145.43 171.387-1.774 5.601-.976-2.77-2.797-.886Zm0 0" stroke-width=".75072" />
  <path fill="none" stroke="currentColor" stroke-miterlimit="10" d="m93.465 224.09 19.894-19.895"
    stroke-width=".75072" />
  <path stroke="currentColor" stroke-miterlimit="10"
    d="m116.144 201.41-1.863 5.578-.922-2.793-2.793-.926Zm0 0" stroke-width=".75072" />
  <path fill="none" stroke="currentColor" stroke-miterlimit="10" d="M346.457 79.508h47.766"
    stroke-width=".75072" />
  <path stroke="currentColor" stroke-miterlimit="10"
    d="m398.164 79.508-5.254 2.629 1.313-2.63-1.313-2.628Zm0 0" stroke-width=".75072" />
  <g fill="currentColor">
    <use xlink:href="#r" x="402.9" y="83.33" />
    <use xlink:href="#s" x="410.49" y="83.33" />
    <use xlink:href="#t" x="416.335" y="83.33" />
    <use xlink:href="#s" x="422.18" y="83.33" />
    <use xlink:href="#u" x="428.026" y="83.33" />
    <use xlink:href="#v" x="433.871" y="83.33" />
    <use xlink:href="#s" x="439.716" y="83.33" />
    <use xlink:href="#u" x="445.561" y="83.33" />
    <use xlink:href="#w" x="451.406" y="83.33" />
    <use xlink:href="#x" x="456.661" y="83.33" />
  </g>
  <g fill="currentColor">
    <use xlink:href="#p" x="12.833" y="141.885" />
    <use xlink:href="#y" x="23.675" y="141.885" />
  </g>
  <g fill="currentColor">
    <use xlink:href="#h" x="286.023" y="179.421" />
    <use xlink:href="#z" x="296.866" y="179.421" />
  </g>
  <path fill="#F19C99" d="M346.457 109.98h41.29v22.52h-41.29Zm0 0" />
  <path fill="#FFCE9F" d="M346.457 140.008h41.29v22.523h-41.29Zm0 0" />
  <path fill="#B9E0A5" d="M346.457 169.66h41.29v22.524h-41.29Zm0 0" />
  <path fill="#96B7FF" d="M346.457 200.066h41.29v22.52h-41.29Zm0 0" />
  <g fill="currentColor">
    <use xlink:href="#A" x="396.378" y="124.619" />
    <use xlink:href="#u" x="403.388" y="124.619" />
    <use xlink:href="#B" x="409.233" y="124.619" />
    <use xlink:href="#C" x="412.153" y="124.619" />
    <use xlink:href="#s" x="415.653" y="124.619" />
    <use xlink:href="#t" x="421.499" y="124.619" />
    <use xlink:href="#C" x="427.344" y="124.619" />
    <use xlink:href="#D" x="430.844" y="124.619" />
    <use xlink:href="#E" x="433.179" y="124.619" />
    <use xlink:href="#s" x="438.434" y="124.619" />
    <use xlink:href="#F" x="444.279" y="124.619" />
    <use xlink:href="#G" x="447.199" y="124.619" />
    <use xlink:href="#H" x="453.044" y="124.619" />
    <use xlink:href="#E" x="458.889" y="124.619" />
    <use xlink:href="#D" x="464.144" y="124.619" />
    <use xlink:href="#u" x="466.479" y="124.619" />
    <use xlink:href="#s" x="472.324" y="124.619" />
    <use xlink:href="#E" x="478.17" y="124.619" />
    <use xlink:href="#E" x="483.425" y="124.619" />
    <use xlink:href="#F" x="488.68" y="124.619" />
    <use xlink:href="#C" x="491.6" y="124.619" />
    <use xlink:href="#H" x="495.1" y="124.619" />
    <use xlink:href="#I" x="500.945" y="124.619" />
    <use xlink:href="#s" x="503.28" y="124.619" />
    <use xlink:href="#E" x="509.125" y="124.619" />
  </g>
  <g fill="currentColor">
    <use xlink:href="#J" x="396.378" y="154.648" />
    <use xlink:href="#t" x="403.388" y="154.648" />
    <use xlink:href="#t" x="409.233" y="154.648" />
    <use xlink:href="#I" x="415.079" y="154.648" />
    <use xlink:href="#D" x="417.414" y="154.648" />
    <use xlink:href="#w" x="419.749" y="154.648" />
    <use xlink:href="#K" x="425.004" y="154.648" />
    <use xlink:href="#B" x="430.849" y="154.648" />
    <use xlink:href="#D" x="433.769" y="154.648" />
    <use xlink:href="#L" x="436.104" y="154.648" />
    <use xlink:href="#u" x="441.949" y="154.648" />
    <use xlink:href="#F" x="447.794" y="154.648" />
    <use xlink:href="#G" x="450.714" y="154.648" />
    <use xlink:href="#H" x="456.559" y="154.648" />
    <use xlink:href="#E" x="462.405" y="154.648" />
    <use xlink:href="#D" x="467.66" y="154.648" />
    <use xlink:href="#u" x="469.995" y="154.648" />
    <use xlink:href="#s" x="475.84" y="154.648" />
    <use xlink:href="#E" x="481.685" y="154.648" />
    <use xlink:href="#E" x="486.94" y="154.648" />
    <use xlink:href="#F" x="492.195" y="154.648" />
    <use xlink:href="#C" x="495.115" y="154.648" />
    <use xlink:href="#H" x="498.615" y="154.648" />
    <use xlink:href="#I" x="504.46" y="154.648" />
    <use xlink:href="#s" x="506.795" y="154.648" />
    <use xlink:href="#E" x="512.64" y="154.648" />
  </g>
  <g fill="currentColor">
    <use xlink:href="#M" x="396.378" y="184.676" />
    <use xlink:href="#u" x="399.298" y="184.676" />
    <use xlink:href="#B" x="405.143" y="184.676" />
    <use xlink:href="#s" x="408.063" y="184.676" />
    <use xlink:href="#C" x="413.909" y="184.676" />
    <use xlink:href="#N" x="417.409" y="184.676" />
    <use xlink:href="#K" x="420.329" y="184.676" />
    <use xlink:href="#w" x="426.174" y="184.676" />
    <use xlink:href="#s" x="431.429" y="184.676" />
    <use xlink:href="#F" x="437.274" y="184.676" />
    <use xlink:href="#K" x="440.194" y="184.676" />
    <use xlink:href="#v" x="446.039" y="184.676" />
    <use xlink:href="#K" x="451.884" y="184.676" />
    <use xlink:href="#t" x="457.729" y="184.676" />
    <use xlink:href="#B" x="463.575" y="184.676" />
    <use xlink:href="#K" x="466.495" y="184.676" />
    <use xlink:href="#B" x="472.34" y="184.676" />
    <use xlink:href="#s" x="475.26" y="184.676" />
    <use xlink:href="#C" x="481.105" y="184.676" />
    <use xlink:href="#E" x="484.605" y="184.676" />
  </g>
  <g fill="currentColor">
    <use xlink:href="#O" x="396.378" y="214.705" />
    <use xlink:href="#C" x="402.798" y="214.705" />
    <use xlink:href="#K" x="406.298" y="214.705" />
    <use xlink:href="#P" x="412.143" y="214.705" />
    <use xlink:href="#s" x="420.898" y="214.705" />
    <use xlink:href="#Q" x="426.743" y="214.705" />
    <use xlink:href="#L" x="434.333" y="214.705" />
    <use xlink:href="#C" x="440.179" y="214.705" />
    <use xlink:href="#R" x="443.678" y="214.705" />
    <use xlink:href="#F" x="448.933" y="214.705" />
    <use xlink:href="#K" x="451.853" y="214.705" />
    <use xlink:href="#u" x="457.699" y="214.705" />
    <use xlink:href="#v" x="463.544" y="214.705" />
    <use xlink:href="#F" x="469.389" y="214.705" />
    <use xlink:href="#v" x="472.309" y="214.705" />
    <use xlink:href="#C" x="478.154" y="214.705" />
    <use xlink:href="#D" x="481.654" y="214.705" />
    <use xlink:href="#S" x="483.989" y="214.705" />
    <use xlink:href="#s" x="489.244" y="214.705" />
    <use xlink:href="#C" x="495.089" y="214.705" />
    <use xlink:href="#E" x="498.589" y="214.705" />
  </g>
  <g fill="currentColor">
    <use xlink:href="#b" x="95.059" y="292.779" />
    <use xlink:href="#T" x="105.074" y="292.779" />
    <use xlink:href="#d" x="112.581" y="292.779" />
    <use xlink:href="#f" x="116.752" y="292.779" />
    <use xlink:href="#n" x="125.103" y="292.779" />
    <use xlink:href="#c" x="130.103" y="292.779" />
    <use xlink:href="#k" x="138.453" y="292.779" />
    <use xlink:href="#o" x="146.803" y="292.779" />
    <use xlink:href="#i" x="150.139" y="292.779" />
    <use xlink:href="#z" x="154.31" y="292.779" />
    <use xlink:href="#c" x="158.482" y="292.779" />
    <use xlink:href="#d" x="166.832" y="292.779" />
    <use xlink:href="#f" x="171.003" y="292.779" />
    <use xlink:href="#n" x="179.354" y="292.779" />
    <use xlink:href="#U" x="184.354" y="292.779" />
    <use xlink:href="#k" x="188.525" y="292.779" />
    <use xlink:href="#j" x="196.875" y="292.779" />
    <use xlink:href="#f" x="204.382" y="292.779" />
    <use xlink:href="#g" x="212.733" y="292.779" />
  </g>
</svg>